HIERARCHY
ROOT Hips
{
	OFFSET -13.091600 -28.302996 44.698402
	CHANNELS 6 Xposition Yposition Zposition Zrotation Xrotation Yrotation
	JOINT Chest
	{
		OFFSET -0.673000 0.623899 5.369202
		CHANNELS 6 Xposition Yposition Zposition Zrotation Xrotation Yrotation
		JOINT Chest2
		{
			OFFSET 0.000000 0.000000 4.415001
			CHANNELS 6 Xposition Yposition Zposition Zrotation Xrotation Yrotation
			JOINT Neck
			{
				OFFSET 0.000000 0.000002 10.273300
				CHANNELS 6 Xposition Yposition Zposition Zrotation Xrotation Yrotation
				JOINT Head
				{
					OFFSET 0.000000 0.000000 2.173897
					CHANNELS 6 Xposition Yposition Zposition Zrotation Xrotation Yrotation
					End Site
					{
						OFFSET 0.000000 0.000000 9.961800
					}
				}
			}
			JOINT LeftCollar
			{
				OFFSET 2.359900 -0.565201 5.928101
				CHANNELS 6 Xposition Yposition Zposition Zrotation Xrotation Yrotation
				JOINT LeftShoulder
				{
					OFFSET 5.443700 0.000000 0.000000
					CHANNELS 6 Xposition Yposition Zposition Zrotation Xrotation Yrotation
					JOINT LeftElbow
					{
						OFFSET 0.000000 0.000000 -10.615799
						CHANNELS 6 Xposition Yposition Zposition Zrotation Xrotation Yrotation
						JOINT LeftWrist
						{
							OFFSET 0.000000 -0.000002 -13.110302
							CHANNELS 6 Xposition Yposition Zposition Zrotation Xrotation Yrotation
							End Site
							{
								OFFSET 0.000000 0.000000 -2.173901
							}
						}
					}
				}
			}
			JOINT RightCollar
			{
				OFFSET -2.636600 -1.718800 6.889698
				CHANNELS 6 Xposition Yposition Zposition Zrotation Xrotation Yrotation
				JOINT RightShoulder
				{
					OFFSET -4.139101 0.000000 0.000000
					CHANNELS 6 Xposition Yposition Zposition Zrotation Xrotation Yrotation
					JOINT RightElbow
					{
						OFFSET 0.000000 0.000000 -10.471802
						CHANNELS 6 Xposition Yposition Zposition Zrotation Xrotation Yrotation
						JOINT RightWrist
						{
							OFFSET 0.000000 0.000000 -12.281898
							CHANNELS 6 Xposition Yposition Zposition Zrotation Xrotation Yrotation
							End Site
							{
								OFFSET 0.000000 -0.000002 -2.173901
							}
						}
					}
				}
			}
		}
	}
	JOINT LeftHip
	{
		OFFSET 2.273400 0.176701 -2.518002
		CHANNELS 6 Xposition Yposition Zposition Zrotation Xrotation Yrotation
		JOINT LeftKnee
		{
			OFFSET 0.000000 -0.000002 -20.456402
			CHANNELS 6 Xposition Yposition Zposition Zrotation Xrotation Yrotation
			JOINT LeftAnkle
			{
				OFFSET 0.000000 -0.000002 -16.635300
				CHANNELS 6 Xposition Yposition Zposition Zrotation Xrotation Yrotation
				End Site
				{
					OFFSET 0.000000 -8.812399 0.000001
				}
			}
		}
	}
	JOINT RightHip
	{
		OFFSET -1.914800 0.018101 -2.699299
		CHANNELS 6 Xposition Yposition Zposition Zrotation Xrotation Yrotation
		JOINT RightKnee
		{
			OFFSET 0.000000 -0.000002 -20.148901
			CHANNELS 6 Xposition Yposition Zposition Zrotation Xrotation Yrotation
			JOINT RightAnkle
			{
				OFFSET 0.000000 -0.000002 -16.838301
				CHANNELS 6 Xposition Yposition Zposition Zrotation Xrotation Yrotation
				End Site
				{
					OFFSET 0.000000 -8.328398 0.000001
				}
			}
		}
	}
}
MOTION
Frames: 7
Frame Time: 0.041667
-53.769699 19.807310 46.688404 766.303238 2.885216 -11.854452 -0.672996 0.623909 5.369206 -10.361733 8.662279 14.090357 -0.000001 0.000005 4.415005 1.213211 -4.364723 -0.557321 0.000009 -0.000015 10.273305 19.323256 15.548487 3.552003 -0.000004 -0.000004 2.173909 0.668058 -6.382745 2.043243 2.359914 -0.565210 5.928100 16.526175 -10.138746 -39.495719 5.443694 0.000009 0.000007 -41.582400 -38.023219 -137.264167 -0.000002 -0.000000 -10.615795 602.422576 -158.954252 188.787590 0.000004 -0.000001 -13.110302 -153.571654 -164.285652 197.990915 -2.636594 -1.718813 6.889700 169.476500 -171.382478 208.674560 -4.139091 0.000009 0.000004 89.562488 -400.520380 176.218225 -0.000003 -0.000001 -10.471807 -45.663448 -17.788321 -376.474918 -0.000001 -0.000003 -12.281883 376.411015 -13.838126 14.807194 2.273399 0.176708 -2.518011 -51.249829 -147.634716 -60.858263 0.000001 -0.000009 -20.456398 35.911991 166.321991 -65.102754 -0.000009 -0.000005 -16.635300 61.655769 2.680214 35.316197 -1.914798 0.018115 -2.699298 165.107857 197.739823 185.261136 -0.000003 -0.000000 -20.148899 14.345899 29.609164 -3.691454 0.000002 -0.000001 -16.838303 0.448764 22.089797 -1.447169
-53.709106 19.780718 46.707199 766.264771 2.741695 -11.855983 -0.673000 0.623890 5.369213 -10.886841 8.533606 14.228560 0.000005 -0.000001 4.415002 1.353205 -4.360743 -0.558068 0.000004 -0.000010 10.273303 19.249710 15.885196 3.325102 -0.000002 0.000002 2.173897 0.717392 -6.427219 2.037695 2.359912 -0.565206 5.928104 16.392848 -10.209757 -39.980085 5.443692 -0.000002 -0.000006 -44.748353 -40.500126 -138.727576 -0.000000 0.000003 -10.615797 599.403850 -158.896046 188.874210 0.000005 -0.000006 -13.110302 -153.775111 -164.204018 197.814313 -2.636595 -1.718806 6.889700 169.306524 -171.358504 208.473916 -4.139095 -0.000002 0.000005 89.534047 -400.358833 176.016406 0.000002 0.000005 -10.471809 -45.715020 -17.784402 -376.433773 0.000004 0.000003 -12.281885 376.947895 -13.808430 14.690856 2.273395 0.176697 -2.518002 -51.918938 -147.340390 -61.657040 0.000003 -0.000002 -20.456400 35.769455 166.488456 -65.287695 -0.000004 -0.000004 -16.635298 61.855286 2.641778 35.407612 -1.914803 0.018098 -2.699296 165.331136 197.495330 185.244484 0.000002 -0.000001 -20.148903 14.617821 29.636826 -3.665351 0.000001 0.000001 -16.838303 -0.122696 22.085200 -1.179197
-53.645805 19.748606 46.727299 766.203846 2.574885 -11.813733 -0.672997 0.623900 5.369208 -11.499196 8.412589 14.350796 -0.000001 0.000000 4.415012 1.554787 -4.379194 -0.561125 0.000003 -0.000000 10.273287 19.189118 16.232436 3.055579 -0.000004 -0.000002 2.173908 0.768027 -6.428427 2.042894 2.359908 -0.565205 5.928089 16.266365 -10.338710 -40.613883 5.443703 -0.000005 -0.000002 -45.340486 -41.173883 -138.417226 0.000007 0.000004 -10.615779 599.168783 -158.897835 188.900465 0.000005 -0.000004 -13.110297 -154.009387 -164.101278 197.788782 -2.636595 -1.718802 6.889697 169.189728 -171.515162 208.235570 -4.139092 -0.000002 0.000006 89.812145 -400.193897 176.176670 0.000004 0.000002 -10.471810 -45.557345 -17.813953 -376.417681 0.000005 -0.000002 -12.281885 377.728285 -13.884222 14.236718 2.273404 0.176707 -2.518005 -52.566386 -147.019822 -62.470447 0.000002 -0.000005 -20.456387 35.651972 166.747553 -65.501453 -0.000004 -0.000005 -16.635290 62.100387 2.607257 35.553204 -1.914795 0.018109 -2.699299 165.520974 197.214855 185.193230 0.000005 -0.000008 -20.148897 14.947693 29.680830 -3.649329 0.000006 -0.000003 -16.838303 -0.617254 22.035710 -1.100841
-53.578804 19.713610 46.748405 766.110791 2.421684 -11.732020 -0.672998 0.623902 5.369215 -12.199845 8.250722 14.443501 -0.000004 0.000002 4.415005 1.816629 -4.404599 -0.565125 0.000000 -0.000009 10.273301 19.167493 16.607783 2.753141 -0.000003 -0.000000 2.173907 0.824549 -6.403602 2.068661 2.359899 -0.565205 5.928103 16.145982 -10.527238 -41.330431 5.443697 0.000006 -0.000003 -45.765997 -41.800341 -137.938375 0.000011 0.000004 -10.615789 598.859621 -158.915949 188.873637 -0.000007 -0.000006 -13.110307 -153.975741 -163.965207 197.906917 -2.636600 -1.718807 6.889700 169.482784 -171.830648 208.626953 -4.139102 0.000005 -0.000004 89.910363 -400.593218 176.424606 0.000000 0.000004 -10.471804 -45.265952 -17.800873 -376.379623 0.000003 -0.000004 -12.281908 378.410430 -13.597921 14.442874 2.273397 0.176706 -2.518000 -53.156927 -146.703051 -63.270672 0.000000 -0.000002 -20.456392 35.573463 167.169495 -65.744184 -0.000011 -0.000005 -16.635300 62.463972 2.559087 35.749251 -1.914798 0.018102 -2.699294 165.735155 196.908644 185.127715 -0.000001 -0.000005 -20.148899 15.203036 29.676564 -3.613986 0.000004 -0.000002 -16.838301 -0.979695 21.988918 -1.156643
-53.506897 19.676817 46.769798 765.978121 2.267845 -11.606132 -0.673001 0.623897 5.369213 -12.932386 8.086100 14.502549 0.000003 -0.000003 4.415010 2.103113 -4.437196 -0.570029 -0.000007 0.000002 10.273309 19.172295 16.999663 2.424430 0.000002 0.000002 2.173909 0.889579 -6.343842 2.117786 2.359901 -0.565200 5.928110 15.995454 -10.687513 -42.080966 5.443699 0.000003 0.000009 -46.001286 -42.370744 -137.395812 0.000013 0.000001 -10.615790 598.582479 -158.971738 188.824049 -0.000003 -0.000004 -13.110306 -153.764866 -163.801638 198.173417 -2.636608 -1.718798 6.889707 169.428853 -172.199997 208.172964 -4.139097 -0.000002 0.000010 90.564559 -400.206438 176.995391 0.000003 -0.000002 -10.471798 -44.935565 -17.767748 -376.348642 0.000005 0.000001 -12.281881 378.817263 -13.521187 14.583738 2.273396 0.176712 -2.518000 -53.683036 -146.365121 -64.042845 0.000004 -0.000004 -20.456394 35.492146 167.585412 -65.966841 -0.000010 -0.000005 -16.635298 62.816089 2.535341 35.874899 -1.914802 0.018099 -2.699294 165.898328 196.587843 185.033240 0.000005 -0.000001 -20.148899 15.476840 29.676233 -3.593857 0.000004 0.000006 -16.838301 -1.256452 21.901107 -1.257937
-53.431595 19.639406 46.792305 765.776221 2.075559 -11.483277 -0.672999 0.623899 5.369213 -13.612851 7.995866 14.612835 0.000004 0.000001 4.415006 2.368188 -4.478956 -0.576601 0.000000 -0.000004 10.273314 19.205672 17.368751 2.008416 -0.000001 -0.000001 2.173906 0.962825 -6.249013 2.185237 2.359907 -0.565204 5.928100 15.887148 -10.914955 -42.901050 5.443697 -0.000002 0.000009 -46.274839 -42.982971 -136.855531 0.000003 0.000000 -10.615784 598.084039 -159.030860 188.718591 0.000005 -0.000007 -13.110300 -153.377116 -163.650212 198.404756 -2.636602 -1.718800 6.889699 169.271226 -172.411351 207.679265 -4.139096 0.000007 -0.000006 91.322710 -399.842689 177.479214 -0.000003 -0.000004 -10.471788 -44.524473 -17.723586 -376.334954 0.000013 -0.000005 -12.281883 379.738410 -13.556389 14.288099 2.273396 0.176703 -2.517997 -54.201530 -146.020524 -64.871088 0.000006 -0.000001 -20.456396 35.344255 167.877293 -66.160880 -0.000007 -0.000002 -16.635294 63.082166 2.537756 35.970156 -1.914802 0.018104 -2.699289 166.047062 196.238848 184.967369 0.000005 -0.000009 -20.148901 15.651665 29.689070 -3.557127 0.000004 0.000005 -16.838301 -1.399726 21.801501 -1.299317
-53.352997 19.603308 46.813805 765.529241 1.874149 -11.384943 -0.672999 0.623898 5.369209 -14.204115 7.949531 14.748593 -0.000005 0.000000 4.415016 2.582323 -4.504303 -0.581662 0.000001 -0.000001 10.273302 19.262117 17.708780 1.587512 -0.000002 -0.000006 2.173909 1.011391 -6.151273 2.221336 2.359901 -0.565199 5.928100 15.818064 -11.207537 -43.679709 5.443698 -0.000010 0.000003 -46.650978 -43.595335 -136.413727 0.000005 0.000003 -10.615797 597.510631 -159.107139 188.632271 -0.000003 -0.000005 -13.110305 -152.970938 -163.499839 198.538532 -2.636603 -1.718800 6.889703 169.003018 -172.367282 207.412027 -4.139091 -0.000004 -0.000002 92.228741 -399.745591 177.858973 -0.000003 0.000004 -10.471794 -43.976426 -17.644400 -376.359843 0.000000 -0.000003 -12.281902 380.472464 -13.557961 14.369137 2.273396 0.176706 -2.518003 -54.726901 -145.714108 -65.720026 -0.000000 -0.000005 -20.456390 35.102955 168.028227 -66.297846 -0.000008 -0.000002 -16.635292 63.276928 2.541803 36.021916 -1.914803 0.018101 -2.699296 166.226614 195.878651 184.963422 0.000002 -0.000005 -20.148907 15.811710 29.684166 -3.560937 0.000009 0.000003 -16.838303 -1.473965 21.694382 -1.329847
